<?xml version="1.0" encoding="utf-8"?>
<!-- Generator: Adobe Illustrator 25.4.1, SVG Export Plug-In . SVG Version: 6.00 Build 0)  -->
<svg version="1.1" id="Livello_1" xmlns="http://www.w3.org/2000/svg" xmlns:xlink="http://www.w3.org/1999/xlink" x="0px" y="0px"
	 viewBox="0 0 1920 756" style="enable-background:new 0 0 1920 756;" xml:space="preserve">
<style type="text/css">
	.st0{fill:#FDFDFD;}
</style>
<path class="st0" d="M460.7,750.7c-19.2-4.4-38.5-8.8-57.7-13.3c-41.2-18.8-85.2-33.5-117-67.9c-16.6-18.1-35.2-16.6-57.1-15.6
	C107.2,659.5,11,574.1,0.4,453.2c-6.6-75.4,61-175.9,134.6-198.2c22.9-6.9,39.2-17.5,48.6-41.2C286.8-46,674.7-67.1,829.4,167.3
	c29.2,44.3,59.9,24.3,92.5,25.2c98.5-3.5,179.7,31.8,240,110.3c13.7,17.9,25.6,15.8,44,10.6c81.5-23,150.8-2,206.8,62
	c5,5.7,12,17.6,14,16.8c83.7-34.2,138.9,56.9,219.6,47.8c69.8-7.8,141.3,4.2,210.9,19c24.1,5.1,49.6,9.1,62.8,34.5
	c-20.3,23.9-50,28.2-77.6,33.1c-64.1,11.4-129,17.2-194.2,14.4c-39.9-1.7-76.9-2.1-108.3,32.7c-18.9,20.9-50.8,24.4-80.7,15.7
	c-16.2-4.6-31.1-9.8-45.1,9.6c-44.6,61.6-109.3,79.1-181.8,76.5c-9.8-8.5-21.5-10.1-33.9-9.3c-18.2-9.4-34.8-37.3-57.6-12.7
	c-69.5,74.9-157.1,92.8-253.7,85.8c-25.5-9.4-51.1-18.8-76.6-28.3c-24.3-9.5-40.8-50-72-28.1C654,742.4,559.9,755.5,460.7,750.7z"/>
</svg>
