<svg id="Livello_1" data-name="Livello 1" xmlns="http://www.w3.org/2000/svg" viewBox="0 0 1920 941.5"><defs><style>.cls-1{fill:#302e2c;}.cls-2{fill:#2d2d2d;}.cls-3{fill:#393939;}.cls-4{fill:#363533;}.cls-5{fill:#303030;}.cls-6{fill:#262626;}.cls-7{fill:#312f2d;}.cls-8{fill:#2a2a29;}.cls-9{fill:#323130;}.cls-10{fill:#343332;}.cls-11{fill:#353332;}.cls-12{fill:#333130;}.cls-13{fill:#040404;}.cls-14{fill:#33312f;}.cls-15{fill:#363432;}</style></defs><g id="Mountain"><path class="cls-1" d="M1215.3,375c.2,5.8,3.4,9,8.8,9.9-1.7,5.8-15.2,6.6-6.6,16.3.8,1.5-.2,2.4-1.3,3.4-12.6.2-15.4,8.1-14.8,18.6a4.84,4.84,0,0,1-1.3,3.4c-4.7,1.9-8.8,0-11.6-3.2-5.6-6.6-13.1-9.7-19.9-14.4h0c-9.8-11.1-22.5-18.4-33.6-27.7-8.3-6.9-16.7-14.1-26.4-19.1h0c-3.8-4.1-9.4-6.7-11.4-12.4,2.3-3.2,5.8-.4,7.7-2.6,33,9.2,65.1,21.2,98.4,28.7C1207.6,376.5,1211.6,379.3,1215.3,375Z"/><path class="cls-2" d="M370,418.1c.2,18,.2,36,.6,54,0,3.7-.8,5.6-5.3,5.6-4.7,0-4.9-2.4-4.7-6,.2-7.1-.4-14.2.2-21.4.9-10.1-1.1-18.9-8.4-26.2.9-2.1,3.6-2.2,4.7-4.1C361,416.6,365.7,418.6,370,418.1Z"/><path class="cls-3" d="M357,419.8c-.2,3-2.1,3.9-4.7,4.1-1.1-1.3-2.3-2.4-3.2-3.7C351.8,420.1,354.4,420,357,419.8Z"/><path class="cls-4" d="M718.9,452c-1.7-1.1-4.5.9-5.6-2.1,6.4-4.5,13.5-1.9,20.4-2.6,3.6-.4,7.3,0,10.9-.2a24.37,24.37,0,0,1,5.4,0c146.1.2,292.2,0,438.2.2,7.7,0,12.6-2.4,14.1-10.3-7.5-8.4-17.3-13.9-25.9-20.8-2.8-2.2-6.9-3-7.7-7.5,7.9.2,13.5,4.9,18.2,10.1,3.9,4.3,8.1,6.6,13.5,6.7,9.4,0,10.5,1.1,8.8,9-6-.6-5.4,3.7-5.1,7.5,1.1,7.9-2.1,9.7-9.8,9.7q-211.5-.3-423.2-.2c-2.4,0-5.1.2-7.5.4-2.4,2.2-5.3,2.2-8.3,1.3C743.3,451.4,731.1,453.9,718.9,452Z"/><path class="cls-5" d="M749.1,449.7h-4.3c-7.1-1.7-14.3-.9-21.2-.6-7.5.4-10.1-2.6-9.4-9.9.8-6.4-1.1-12.9.9-19.3,7.5,1.7,11.3,8.4,16.1,12.9,6.4,6,13.3,9.2,21.2,9.4,51.2.4,102.4.2,153.6.2a12.82,12.82,0,0,0,9.9-3.9c3.2-3,6.2-6.2,9.8-8.6,2.6-1.9,5.4-7.5,9-2.4,3.2,4.9-2.8,4.7-5.3,6.2s-4.3,3.6-4.5,6.7c1.9,1.9,4.1.9,6.2.9h259.3c2.8,0,5.6.7,8.3-.9h1.9c2.8,7.1-.6,8.6-6.9,8.4-30.6-.2-61.1,0-91.7,0H759.4C755.9,449,752.5,448.2,749.1,449.7Z"/><path class="cls-6" d="M715.2,420c0,6.6.2,13.1,0,19.5-.4,6.6,2.6,8.4,8.8,8.6,6.9.2,14.3-2.2,20.8,1.5-10.5,0-21,.2-31.5.2-.9-30.5-.8-61.3-.2-91.8,3,2.8,1.9,6.4,1.9,9.6C715.2,385.1,715.2,402.5,715.2,420Z"/><path class="cls-7" d="M546.4,384.2c15-5.8,15-5.8,15-22.7,0-3,0-6.2.2-9.2,3.9,3.2.4,7.7,2.1,11.2v51.7c-9-5.4-16.3-3.9-22.7,3-1.5-.9-.6-3-1.9-4.1v-1.9c2.8-5.8,1.9-12.2,1.5-18.2C540,389.4,541.4,385.7,546.4,384.2Z"/><path class="cls-8" d="M546.4,384.2c-3.8,3.4-4.9,7.3-3.9,12.6.8,5.4,1.7,11.4-3.4,15.7,0-8.6,0-17.4-.2-26a7.14,7.14,0,0,1,.2-2.1C541.4,384.2,543.8,384.2,546.4,384.2Z"/><path class="cls-1" d="M989.5,360.9c2.8-1.3,16.1-12.6,18.2-15.4.8-.9,1.5-1.9,2.3-2.8a12.67,12.67,0,0,0,1.1-1.3,5.62,5.62,0,0,0-.4,1.5,4.2,4.2,0,0,0,1.7,1.5,9.39,9.39,0,0,0,7.7-.4l42.4-8.6h1.3c13.5,2.8,27.2,4.5,39.6,11.4-4.7,3.6-9,.4-13.7-.6,7.3,3,10.9,10.7,18.2,13.7a13.39,13.39,0,0,1,2.3,1.3c18.8,16.1,38.4,30.9,58.7,45.3l1.9,1.9c8.1,7.1,17.3,13.1,25.9,19.7,3,2.4,7.3,3.9,6.6,9.2-.6,2.1-1.5,3.9-3.6,4.9a10.32,10.32,0,0,1-3.4.7c-87,.4-174,.2-261,.2-2.8,0-5.6,0-8.3-1.1-5.4-4.3-.2-7.1,1.3-11.1-8.8,12.7-21.4,14.4-35.4,14.2-43.3-.6-86.6-.9-129.8,0-20.4.4-34.3-8.6-45.6-24-.9-1.3-2.8-1.1-3.2-2.6-2.6-11.8-.8-23.6-1.3-35.4-.4-7.9.8-15.6-.8-23.4a12.19,12.19,0,0,1,0-6c2.4-3.7,2.8-7.3-.4-11.1-1.3-1.5-3.2-3.2-1.3-5.6,27.6-6.4,54.9-12.9,82.7-18.9a448.87,448.87,0,0,1,48.6-8.4c7.5-.9,8.8-5.1,8.8-10.5,0-14.1-.2-28.1-.8-42-.2-3.6.9-6.4,2.8-9.6,0,16.9.4,33.7-.2,50.6-.2,7.7,2.4,9.7,9.6,9.2,12.4-.9,24.9-1.3,37.3-1.9,2.4.6,5.1,1.9,7.5-.2h0c.8-.7,1.1-1.7,1.9-2.4a3.75,3.75,0,0,1,2.1,0,17.68,17.68,0,0,1,1.7,2.4c19.9,3.2,39.2,8.2,58.5,14.1,15.8,4.7,31.7,9.2,48.2,10.5l43.9,5.4,1.3.4"/><path class="cls-9" d="M1105,346.9c-1.1,2.2-3.8,1.5-5.6,2.4,1.1,5.6,9.8,5.8,9.4,12.6-1.3-.2-2.8.2-3.8-.4-7.5-5.2-12.9-12.9-21.6-17.1,7.3-2.4,13.1,3.2,19.9,2.2A8.58,8.58,0,0,1,1105,346.9Z"/><path class="cls-10" d="M1030,352.5c-2.3-4.1-3.6-8.8-9.4-9.4-2.1-3.7.9-7.5,0-11.2h3.8c2.8,4.9,5.4,9.4,12.8,8.4,3.8-.6,5.6,2.8,4.7,6.6.9-6.4.9-6.4-5.4-7.3-4.5-.6-9.4-.4-6.2-7.3,4.9.6,9.9,1.1,14.8,1.7,2.8,2.2,5.4,5.4,9.4,1.9l-.2-.2a1.12,1.12,0,0,1,1.9,0c2.4.2,4.9.2,7.5.4-8.8,8.1-15.8,18.6-29.1,20C1031.9,356.2,1032.1,356.6,1030,352.5Z"/><path class="cls-11" d="M1108.8,361.9c6.8-.4,10.1,5.1,15.2,8.1,14.4,8.6,25.3,21.7,39.8,30.4a10.47,10.47,0,0,1,5.3,8.2,490.06,490.06,0,0,1-54.9-41.4C1112,365.6,1110.5,363.6,1108.8,361.9Z"/><path class="cls-12" d="M966.3,380.6c-3.6,13.3-3.6,13.3-14.1,3.9-2.1-1.9-3.8-5.2-7.9-2.4,2.4,4.9,13.7,8.2,3.2,15.4-2.4-4.9-5.6-9.6-7.1-14.8-.9-3.6,2.8-6.2,5.8-7.3,4.7-1.5,9.6,2.1,10.5,4.9,2.1,6.6,2.6,6.2,5.3.6C962.7,378.7,964.8,378.5,966.3,380.6Z"/><path class="cls-10" d="M1011.3,341.3c.9-1.5,2.1-3.9,3.9-2.8,2.1,1.1.4,2.2-1.1,2.6A13.2,13.2,0,0,1,1011.3,341.3Z"/><path class="cls-13" d="M1056.3,335.4h-1.9c.6-4.1-4.7-5.4-4.5-9.6C1051.2,329.6,1060.6,327.6,1056.3,335.4Z"/><path class="cls-14" d="M962.5,406.3c0,5.4-1.9,9.4-7.1,9.6-5.4.4-9-3-9.6-8.2-.6-6.2,4.3-7.9,9.2-8.1C959.5,399.3,962.9,401.6,962.5,406.3Z"/><path class="cls-15" d="M974.9,383c-.6,4.9-1.1,8.6-1.7,13.1-3.6-.7-5.1-3-4.9-6.2C968.5,386.2,970.4,383.6,974.9,383Z"/></g></svg>