<?xml version="1.0" encoding="utf-8"?>
<!-- Generator: Adobe Illustrator 25.4.1, SVG Export Plug-In . SVG Version: 6.00 Build 0)  -->
<svg version="1.1" id="Livello_1" xmlns="http://www.w3.org/2000/svg" xmlns:xlink="http://www.w3.org/1999/xlink" x="0px" y="0px"
	 viewBox="0 0 1920 613" style="enable-background:new 0 0 1920 613;" xml:space="preserve">
<style type="text/css">
	.st0{fill:#FDFDFD;}
</style>
<path class="st0" d="M1712,225.8c72.2,20.9,153.5,19.6,208,84.3c-0.4,35-23.5,51.4-51.7,64.6c-106.6,49.9-227.4,40.5-338,83.3
	c-43.8,17-53,61.7-93.8,68.4c-70.9,11.6-131.4,53.3-202.6,65.6c-136.3,23.5-272,19.5-408.2,2c-70.9-21.1-139.3-54.3-217.6-27.8
	c-27.8,9.4-64.3,1.4-83.9-18.2c-42.3-42.2-92.7-43.7-146.2-51.1c-49-6.8-102.6-24.4-107-88.8c-2-29.6-21.4-19.1-35.1-21.9
	c-65.9-13.2-133.9-19-194.6-51.4c-20.2-10.8-43.6-20.5-41.2-49.8c2.1-24.8,21.7-34.7,41.3-43.2c110.7-48,228.3-56.4,346.6-57.9
	c35-0.4,60-2,80-40.8c32.5-63,95.1-82.8,162.2-71c31.5,5.6,54.5-0.4,82.5-11.7c161.8-65.3,324.1-67.6,483.8,7.8
	c25.4,12,42.6,18.1,65.3-6.7c30.3-33.1,77.9-51.3,115.5-33.9c90.4,41.7,201.9,34.7,274.2,117.5C1661,180.1,1649.4,230.8,1712,225.8z
	"/>
</svg>
